<svg style="display:none"><defs><svg id="op3-icons-chat-round-2" xmlns="http://www.w3.org/2000/svg" viewBox="0 0 32 32"><path fill="currentColor" d="M16 1C7 1 0 6.7 0 14s7.2 13.301 16 13.301c1.4 0 2.8-.2 4.1-.5l7.5 3.1c.1.1.3.1.4.1.2 0 .4-.1.6-.2.3-.2.4-.5.4-.9l-.5-6.702C30.8 19.9 32 17 32 14c0-7.3-7-13-16-13z"/></svg><svg id="op3-icons-check-circle-08-2" xmlns="http://www.w3.org/2000/svg" viewBox="0 0 32 32"><path fill="currentColor" d="M16 0C7.2 0 0 7.2 0 16s7.2 16 16 16 16-7.2 16-16S24.8 0 16 0zm7 10c.25 0 .5.1.7.3.4.4.4 1 0 1.4l-10 10c-.2.2-.4.3-.7.3s-.5-.1-.7-.3l-4-4c-.4-.4-.4-1 0-1.4.4-.4 1-.4 1.4 0l3.3 3.3 9.3-9.3c.2-.2.45-.3.7-.3z"/></svg><svg id="op3-icons-email-83-1" xmlns="http://www.w3.org/2000/svg" viewBox="0 0 32 32"><path fill="currentColor" d="M0 4v24h32V4H0zm2 2h28v3.4l-14 7.467L2 9.4V6zm0 5.666l14 7.467 14-7.467V26H2V11.666z"/></svg><svg id="op3-icons-fat-add-2" xmlns="http://www.w3.org/2000/svg" viewBox="0 0 32 32"><path fill="currentColor" d="M14 6c-.6 0-1 .4-1 1v6H7c-.6 0-1 .4-1 1v4c0 .6.4 1 1 1h6v6c0 .6.4 1 1 1h4c.6 0 1-.4 1-1v-6h6c.6 0 1-.4 1-1v-4c0-.6-.4-1-1-1h-6V7c0-.6-.4-1-1-1h-4z"/></svg><svg id="op3-icons-fat-delete-2" xmlns="http://www.w3.org/2000/svg" viewBox="0 0 32 32"><path fill="currentColor" d="M7 13c-.6 0-1 .4-1 1v4c0 .6.4 1 1 1h18c.6 0 1-.4 1-1v-4c0-.6-.4-1-1-1H7z"/></svg><svg id="op3-icons-ob-arrow-right-3" xmlns="http://www.w3.org/2000/svg" viewBox="0 0 128 128"><path fill="currentColor" d="M0 0v32l32 32L0 96v32l64-64L0 0zm64 0v32l32 32-32 32v32l64-64L64 0z"/></svg><svg id="op3-icons-small-right" xmlns="http://www.w3.org/2000/svg" viewBox="0 0 32 32"><path fill="currentColor" d="M13 8.586L11.586 10l6 6-6 6L13 23.414 20.414 16 13 8.586z"/></svg></defs></svg>